HIERARCHY
ROOT Hips
{
	OFFSET 0.000000 0.000000 0.000000
	CHANNELS 6 Xposition Yposition Zposition Xrotation Yrotation Zrotation
	JOINT LeftUpLeg_virtual
	{
		OFFSET 0.000000 0.000000 0.000000
		CHANNELS 3 Xrotation Yrotation Zrotation
		JOINT LeftUpLeg
		{
			OFFSET 13.026900 -6.336304 -1.092800
			CHANNELS 3 Xrotation Yrotation Zrotation
			JOINT LeftLeg
			{
				OFFSET 0.524474 -46.096886 9.782700
				CHANNELS 3 Xrotation Yrotation Zrotation
				JOINT LeftFoot
				{
					OFFSET -0.524474 -53.427422 -12.948200
					CHANNELS 3 Xrotation Yrotation Zrotation
					JOINT LeftToeBase
					{
						OFFSET 0.192200 -14.009700 16.364100
						CHANNELS 3 Xrotation Yrotation Zrotation
						JOINT LeftToe_End
						{
							OFFSET -1.784700 -0.561700 9.474800
							CHANNELS 3 Xrotation Yrotation Zrotation
							End Site
							{
								OFFSET 0 0 0
							}
						}
					}
				}
			}
		}
	}
	JOINT RightUpLeg_virtual
	{
		OFFSET 0.000000 0.000000 0.000000
		CHANNELS 3 Xrotation Yrotation Zrotation
		JOINT RightUpLeg
		{
			OFFSET -12.883000 -6.336304 -1.092800
			CHANNELS 3 Xrotation Yrotation Zrotation
			JOINT RightLeg
			{
				OFFSET -0.524587 -46.096825 9.782800
				CHANNELS 3 Xrotation Yrotation Zrotation
				JOINT RightFoot
				{
					OFFSET 0.524587 -53.427383 -12.948300
					CHANNELS 3 Xrotation Yrotation Zrotation
					JOINT RightToeBase
					{
						OFFSET -0.192200 -14.009700 16.364100
						CHANNELS 3 Xrotation Yrotation Zrotation
						JOINT RightToe_End
						{
							OFFSET 1.784700 -0.561700 9.474800
							CHANNELS 3 Xrotation Yrotation Zrotation
							End Site
							{
								OFFSET 0 0 0
							}
						}
					}
				}
			}
		}
	}
	JOINT Spine_virtual
	{
		OFFSET 0.000000 0.000000 0.000000
		CHANNELS 3 Xrotation Yrotation Zrotation
		JOINT Spine
		{
			OFFSET 0.072000 7.257294 -0.789700
			CHANNELS 3 Xrotation Yrotation Zrotation
			JOINT Spine1
			{
				OFFSET 0.000000 12.508769 -0.658067
				CHANNELS 3 Xrotation Yrotation Zrotation
				JOINT Spine1_split
				{
					OFFSET 0.000000 12.508769 -0.658067
					CHANNELS 3 Xrotation Yrotation Zrotation
					JOINT Spine2
					{
						OFFSET 0.000000 12.508769 -0.658067
						CHANNELS 3 Xrotation Yrotation Zrotation
						JOINT Neck_virtual
						{
							OFFSET 0.000000 0.000000 0.000000
							CHANNELS 3 Xrotation Yrotation Zrotation
							JOINT Neck
							{
								OFFSET 0.000000 14.033295 7.520400
								CHANNELS 3 Xrotation Yrotation Zrotation
								JOINT Head
								{
									OFFSET 0.000000 8.198502 5.703100
									CHANNELS 3 Xrotation Yrotation Zrotation
									JOINT HeadTop_End
									{
										OFFSET 0.000000 17.760803 13.332701
										CHANNELS 3 Xrotation Yrotation Zrotation
										End Site
										{
											OFFSET 0 0 0
										}
									}
								}
							}
						}
						JOINT LeftShoulder_virtual
						{
							OFFSET 0.000000 0.000000 0.000000
							CHANNELS 3 Xrotation Yrotation Zrotation
							JOINT LeftShoulder
							{
								OFFSET 6.292450 5.785301 -0.669000
								CHANNELS 3 Xrotation Yrotation Zrotation
								JOINT LeftShoulder_split
								{
									OFFSET 6.292450 5.785301 -0.669000
									CHANNELS 3 Xrotation Yrotation Zrotation
									JOINT LeftArm
									{
										OFFSET 13.907140 -6.093903 1.965100
										CHANNELS 3 Xrotation Yrotation Zrotation
										JOINT LeftForeArm
										{
											OFFSET 34.140198 0.000000 0.000000
											CHANNELS 3 Xrotation Yrotation Zrotation
											JOINT LeftHand
											{
												OFFSET 40.960209 0.000000 0.000000
												CHANNELS 3 Xrotation Yrotation Zrotation
												End Site
												{
													OFFSET 0 0 0
												}
											}
										}
									}
								}
							}
						}
						JOINT RightShoulder_virtual
						{
							OFFSET 0.000000 0.000000 0.000000
							CHANNELS 3 Xrotation Yrotation Zrotation
							JOINT RightShoulder
							{
								OFFSET -6.292450 5.785301 -0.669000
								CHANNELS 3 Xrotation Yrotation Zrotation
								JOINT RightShoulder_split
								{
									OFFSET -6.292450 5.785301 -0.669000
									CHANNELS 3 Xrotation Yrotation Zrotation
									JOINT RightArm
									{
										OFFSET -13.907140 -6.093903 1.965100
										CHANNELS 3 Xrotation Yrotation Zrotation
										JOINT RightForeArm
										{
											OFFSET -34.140198 0.000000 0.000000
											CHANNELS 3 Xrotation Yrotation Zrotation
											JOINT RightHand
											{
												OFFSET -40.960209 0.000000 0.000000
												CHANNELS 3 Xrotation Yrotation Zrotation
												End Site
												{
													OFFSET 0 0 0
												}
											}
										}
									}
								}
							}
						}
					}
				}
			}
		}
	}
}
MOTION
Frames: 8
Frame Time: 0.03333333
3.646232 99.573914 1.213066 0.000000 0.000000 0.000000 8.080885 -12.104643 1.947298 -52.427958 4.659190 20.185282 38.790946 3.689184 4.629328 7.961114 -0.231590 -18.105831 -0.320496 0.423879 -0.447345 0.000000 0.000000 0.000000 7.596044 -12.066983 2.119007 -29.005344 -3.799704 -28.300783 32.156001 0.645131 -0.907599 -5.902446 -6.649617 30.834285 -1.579676 0.203632 -0.297510 0.000000 0.000000 0.000000 8.472973 -10.547159 1.499440 8.034994 2.693624 -2.283114 6.265179 1.645720 -1.217455 0.495701 2.119868 0.307039 0.000000 0.000000 0.000000 6.399655 1.249960 -0.516584 -1.913199 -0.054968 -3.222969 -10.654793 -3.872637 4.571205 0.000000 0.000000 0.000000 5.975311 1.687254 -1.005955 5.378973 -36.297019 3.905323 -2.193662 -3.476567 -1.336441 -77.594057 -33.724196 -28.222149 -0.106864 -23.943045 1.530204 0.000000 0.000000 0.000000 5.381132 1.442656 -0.692876 5.428260 28.592598 -19.546719 2.254794 -0.547743 1.576200 -38.024657 30.569092 12.306603 0.797758 39.731866 -0.501151 0.000000 0.000000 0.000000 
3.897621 99.202454 1.393818 0.000000 0.000000 0.000000 8.351490 -11.776050 1.727499 -53.394594 4.564836 20.331764 39.539436 3.561271 4.535068 7.517865 -0.591414 -17.963672 -0.274441 0.416235 -0.452225 0.000000 0.000000 0.000000 7.809777 -11.847773 1.893154 -29.134223 -3.952613 -28.298217 32.459682 0.639482 -0.980328 -6.083731 -7.006339 30.797514 -1.454171 0.222786 -0.318815 0.000000 0.000000 0.000000 8.905470 -10.540939 1.307228 8.101560 2.494722 -2.336524 6.215113 1.377243 -1.247817 0.574942 2.338515 0.245543 0.000000 0.000000 0.000000 6.266787 1.008140 -0.564400 -2.641580 -0.326294 -2.539342 -10.930638 -4.066783 5.034769 0.000000 0.000000 0.000000 5.837793 1.506780 -1.100647 5.261049 -36.618188 4.126540 -0.750195 -3.760721 -0.793990 -76.886155 -33.792511 -26.950048 -0.180786 -23.611177 1.656301 0.000000 0.000000 0.000000 5.461349 1.336700 -0.780005 5.078763 28.951659 -19.396972 2.580905 -1.253598 1.551052 -40.509131 28.587084 13.674217 0.717234 41.178309 -0.320646 0.000000 0.000000 0.000000 
4.114751 98.789284 1.601784 0.000000 0.000000 0.000000 8.536005 -11.462892 1.470061 -54.227406 4.551271 20.514687 40.250359 3.480020 4.492742 7.023352 -0.807021 -17.771421 -0.272419 0.414142 -0.467457 0.000000 0.000000 0.000000 7.988521 -11.518481 1.604078 -29.133304 -4.089115 -28.285963 32.666756 0.591661 -1.052399 -6.318550 -7.361356 30.684300 -1.308350 0.225689 -0.299208 0.000000 0.000000 0.000000 9.255499 -10.524728 1.095560 8.185339 2.326082 -2.254306 6.234296 1.199143 -1.237929 0.755869 2.223689 0.191108 0.000000 0.000000 0.000000 6.139990 0.845304 -0.612694 -3.597243 -0.694137 -1.679754 -11.164723 -4.115410 5.410887 0.000000 0.000000 0.000000 5.876218 1.330712 -1.176449 5.018814 -36.597509 3.998347 0.245038 -3.764102 -0.368355 -76.305050 -34.035543 -26.565186 -0.503626 -22.696085 1.485822 0.000000 0.000000 0.000000 5.650590 1.333584 -0.816173 4.547765 28.841276 -18.639972 2.602471 -1.495741 1.268330 -42.534935 27.543988 15.344088 0.684362 41.266610 -0.247562 0.000000 0.000000 0.000000 
4.309841 98.382072 1.806072 0.000000 0.000000 0.000000 8.591631 -11.271443 1.196740 -54.832308 4.619559 20.743913 40.895293 3.468350 4.493059 6.539491 -0.868863 -17.548407 -0.365766 0.422002 -0.477393 0.000000 0.000000 0.000000 8.132645 -11.206396 1.304452 -29.103166 -4.199317 -28.294113 32.764305 0.538130 -1.120610 -6.514220 -7.614777 30.571654 -1.170554 0.213106 -0.246451 0.000000 0.000000 0.000000 9.443992 -10.518876 0.901807 8.267858 2.228580 -2.072753 6.307210 1.157362 -1.199423 0.921897 2.115269 0.083875 0.000000 0.000000 0.000000 6.044234 0.806530 -0.661254 -4.674332 -1.105984 -0.937036 -11.295588 -4.030305 5.665552 0.000000 0.000000 0.000000 6.059095 1.207372 -1.217173 4.746052 -36.305157 3.806680 0.669856 -3.406751 -0.272154 -76.134404 -34.817753 -26.870620 -0.927167 -21.606199 1.126139 0.000000 0.000000 0.000000 5.920533 1.415647 -0.807987 4.022937 28.426083 -17.723653 2.307419 -1.369200 0.761334 -43.407604 27.856080 16.679090 0.801130 39.861763 -0.379055 0.000000 0.000000 0.000000 
4.507628 98.052605 1.974308 0.000000 0.000000 0.000000 8.544448 -11.216921 0.945391 -55.172964 4.753437 20.988026 41.418042 3.490288 4.516018 6.113837 -0.848662 -17.355678 -0.508391 0.438976 -0.472617 0.000000 0.000000 0.000000 8.186215 -11.048661 1.039166 -29.057052 -4.279572 -28.337558 32.670270 0.495391 -1.175718 -6.642794 -7.700685 30.537414 -1.037112 0.192333 -0.181516 0.000000 0.000000 0.000000 9.453946 -10.540293 0.758190 8.326938 2.210263 -1.857840 6.394372 1.255936 -1.168113 0.987713 2.086077 -0.147373 0.000000 0.000000 0.000000 5.989650 0.882189 -0.708334 -5.739713 -1.453098 -0.566584 -11.269711 -3.828886 5.765787 0.000000 0.000000 0.000000 6.295281 1.181574 -1.212016 4.499479 -35.903197 3.710832 0.896942 -2.953441 -0.477000 -76.060406 -35.896042 -27.413999 -1.320206 -21.191746 0.750308 0.000000 0.000000 0.000000 6.177385 1.535132 -0.799536 3.637726 27.828644 -17.003790 1.883165 -1.134254 0.258629 -43.052547 29.113217 17.559199 1.020473 37.922460 -0.672979 0.000000 0.000000 0.000000 
4.713280 97.882889 2.038029 0.000000 0.000000 0.000000 8.427023 -11.318493 0.750786 -55.274774 4.904300 21.194992 41.741779 3.514714 4.549338 5.795532 -0.832247 -17.227974 -0.605494 0.462107 -0.453121 0.000000 0.000000 0.000000 8.169849 -11.053081 0.844687 -28.965903 -4.338860 -28.384437 32.352663 0.458834 -1.220124 -6.701705 -7.639751 30.589866 -0.931735 0.170389 -0.129709 0.000000 0.000000 0.000000 9.346551 -10.567430 0.679939 8.326884 2.245889 -1.678232 6.449163 1.435785 -1.166631 0.705808 2.202021 -0.371545 0.000000 0.000000 0.000000 5.962930 1.045964 -0.766176 -6.630572 -1.634955 -0.659777 -11.010954 -3.572774 5.718864 0.000000 0.000000 0.000000 6.493002 1.248166 -1.189362 4.270583 -35.576809 3.671445 1.013307 -2.633880 -0.652384 -75.714532 -36.702472 -27.631423 -1.476341 -21.884044 0.525550 0.000000 0.000000 0.000000 6.366490 1.636536 -0.809493 3.424196 27.098052 -16.685771 1.226111 -1.085988 -0.235714 -41.674386 30.344782 17.917027 1.340805 36.607594 -1.093542 0.000000 0.000000 0.000000 
4.892930 97.924889 2.048672 0.000000 0.000000 0.000000 8.306473 -11.522800 0.628022 -55.194380 5.056162 21.329554 41.844867 3.523136 4.573620 5.596833 -0.871687 -17.163903 -0.574822 0.487229 -0.426102 0.000000 0.000000 0.000000 8.127987 -11.190054 0.730286 -28.761104 -4.383496 -28.372577 31.849380 0.395943 -1.250929 -6.679587 -7.521117 30.674718 -0.902915 0.152852 -0.106300 0.000000 0.000000 0.000000 9.203980 -10.601280 0.641553 8.241648 2.311296 -1.580365 6.463120 1.628814 -1.208218 0.332784 2.338426 -0.547368 0.000000 0.000000 0.000000 5.937827 1.217222 -0.851686 -7.216482 -1.606691 -1.152212 -10.532002 -3.390908 5.582811 0.000000 0.000000 0.000000 6.610070 1.361453 -1.194503 4.116393 -35.568558 3.707421 1.246392 -2.372891 -0.547605 -75.290432 -37.178332 -27.567668 -1.347806 -23.145267 0.495370 0.000000 0.000000 0.000000 6.487389 1.696993 -0.848258 3.276252 26.301732 -16.737355 0.657520 -1.262330 -0.607074 -40.021077 30.912217 18.121469 1.655141 36.594873 -1.523972 0.000000 0.000000 0.000000 
5.036736 98.158081 1.980968 0.000000 0.000000 0.000000 8.222890 -11.813706 0.579362 -54.959462 5.226443 21.389323 41.709066 3.530069 4.590449 5.510774 -0.974721 -17.170722 -0.427190 0.509811 -0.393608 0.000000 0.000000 0.000000 8.041282 -11.435589 0.672852 -28.447861 -4.375716 -28.255728 31.269282 0.275624 -1.268944 -6.591471 -7.429786 30.726303 -0.946123 0.138115 -0.110061 0.000000 0.000000 0.000000 9.081089 -10.682474 0.611336 8.122451 2.375866 -1.572440 6.466996 1.779283 -1.292896 0.252925 2.381967 -0.680809 0.000000 0.000000 0.000000 5.902264 1.347337 -0.960596 -7.465328 -1.390754 -1.818798 -9.934489 -3.258366 5.345061 0.000000 0.000000 0.000000 6.672574 1.468220 -1.243253 4.013939 -36.052580 3.672651 1.395249 -2.272860 -0.221059 -74.596505 -36.986946 -26.909663 -1.065974 -23.932527 0.639930 0.000000 0.000000 0.000000 6.549200 1.692821 -0.914428 3.154998 25.514641 -17.008559 0.158234 -1.529541 -0.838072 -39.125297 30.674332 18.928619 1.894836 37.386560 -1.864276 0.000000 0.000000 0.000000 
